<svg width="36" height="36" viewBox="0 0 36 36" fill="none" xmlns="http://www.w3.org/2000/svg">
<rect width="36" height="36" fill="#E5E5E5"/>
<g id="Desktop Page" clip-path="url(#clip0_0_1)">
<rect width="1512" height="6134" transform="translate(-288 -5766)" fill="#F5F5F5"/>
<g id="Footer">
<rect width="1512" height="603" transform="translate(-288 -235)" fill="#F5F5F5"/>
<g id="Main_Content">
<g id="Links_Block">
<g id="Logo">
<path id="Name" d="M-133.3 -7V-32.272H-116.848V-27.592H-127.144V-22.156H-119.44V-17.476H-127.144V-7H-133.3ZM-96.285 -14.416C-95.061 -15.736 -94.449 -17.5 -94.449 -19.708C-94.449 -21.916 -95.061 -23.68 -96.285 -25C-97.485 -26.32 -99.105 -26.98 -101.145 -26.98C-103.161 -26.98 -104.781 -26.32 -106.005 -25C-107.205 -23.68 -107.805 -21.916 -107.805 -19.708C-107.805 -17.5 -107.205 -15.736 -106.005 -14.416C-104.781 -13.096 -103.161 -12.436 -101.145 -12.436C-99.105 -12.436 -97.485 -13.096 -96.285 -14.416ZM-110.325 -10.42C-112.821 -12.868 -114.069 -15.964 -114.069 -19.708C-114.069 -23.452 -112.821 -26.536 -110.325 -28.96C-107.805 -31.408 -104.733 -32.632 -101.109 -32.632C-97.461 -32.632 -94.401 -31.408 -91.929 -28.96C-89.433 -26.536 -88.185 -23.452 -88.185 -19.708C-88.185 -15.964 -89.433 -12.868 -91.929 -10.42C-94.425 -7.972 -97.485 -6.748 -101.109 -6.748C-104.733 -6.748 -107.805 -7.972 -110.325 -10.42ZM-78.0659 -16.828V-7H-84.2219V-32.272H-74.2499C-71.3219 -32.272 -69.0419 -31.516 -67.4099 -30.004C-65.7779 -28.492 -64.9619 -26.668 -64.9619 -24.532C-64.9619 -23.068 -65.4059 -21.64 -66.2939 -20.248C-67.1819 -18.856 -68.6339 -17.872 -70.6499 -17.296L-64.4579 -7H-71.6579L-77.3459 -16.828H-78.0659ZM-78.0659 -27.592V-21.508H-74.2499C-73.3139 -21.508 -72.5819 -21.784 -72.0539 -22.336C-71.5019 -22.888 -71.2259 -23.608 -71.2259 -24.496C-71.2259 -25.408 -71.5019 -26.152 -72.0539 -26.728C-72.6059 -27.304 -73.3379 -27.592 -74.2499 -27.592H-78.0659ZM-44.875 -32.344V-27.664H-54.019V-22.228H-45.955V-17.548H-54.019V-11.68H-44.875V-7H-60.175V-32.344H-44.875ZM-33.0574 -7L-42.0214 -32.272H-35.4694L-29.2054 -13.012L-22.9414 -32.272H-16.3894L-25.3534 -7H-33.0574ZM1.84766 -32.344V-27.664H-7.29634V-22.228H0.767657V-17.548H-7.29634V-11.68H1.84766V-7H-13.4523V-32.344H1.84766ZM13.3052 -16.828V-7H7.14922V-32.272H17.1212C20.0492 -32.272 22.3292 -31.516 23.9612 -30.004C25.5932 -28.492 26.4092 -26.668 26.4092 -24.532C26.4092 -23.068 25.9652 -21.64 25.0772 -20.248C24.1892 -18.856 22.7372 -17.872 20.7212 -17.296L26.9132 -7H19.7132L14.0252 -16.828H13.3052ZM13.3052 -27.592V-21.508H17.1212C18.0572 -21.508 18.7892 -21.784 19.3172 -22.336C19.8692 -22.888 20.1452 -23.608 20.1452 -24.496C20.1452 -25.408 19.8692 -26.152 19.3172 -26.728C18.7652 -27.304 18.0332 -27.592 17.1212 -27.592H13.3052ZM-117.388 3.728H-111.232V29H-117.388V18.524H-127.144V29H-133.3V3.728H-127.144V13.844H-117.388V3.728ZM-89.535 21.584C-88.311 20.264 -87.699 18.5 -87.699 16.292C-87.699 14.084 -88.311 12.32 -89.535 11C-90.735 9.68 -92.355 9.02 -94.395 9.02C-96.411 9.02 -98.031 9.68 -99.255 11C-100.455 12.32 -101.055 14.084 -101.055 16.292C-101.055 18.5 -100.455 20.264 -99.255 21.584C-98.031 22.904 -96.411 23.564 -94.395 23.564C-92.355 23.564 -90.735 22.904 -89.535 21.584ZM-103.575 25.58C-106.071 23.132 -107.319 20.036 -107.319 16.292C-107.319 12.548 -106.071 9.464 -103.575 7.04C-101.055 4.592 -97.983 3.368 -94.359 3.368C-90.711 3.368 -87.651 4.592 -85.179 7.04C-82.683 9.464 -81.435 12.548 -81.435 16.292C-81.435 20.036 -82.683 23.132 -85.179 25.58C-87.675 28.028 -90.735 29.252 -94.359 29.252C-97.983 29.252 -101.055 28.028 -103.575 25.58ZM-48.8519 3.728V29H-55.0079V14.744L-60.8759 29H-65.4479L-71.3159 14.744V29H-77.4719V3.728H-70.4159L-63.1439 21.152L-55.9079 3.728H-48.8519ZM-28.1406 3.656V8.336H-37.2846V13.772H-29.2206V18.452H-37.2846V24.32H-28.1406V29H-43.4406V3.656H-28.1406ZM-14.2711 8.228C-15.0391 8.228 -15.6751 8.432 -16.1791 8.84C-16.6591 9.248 -16.8991 9.836 -16.8991 10.604C-16.8991 11.372 -16.6711 11.996 -16.2151 12.476C-15.7591 12.932 -15.1711 13.292 -14.4511 13.556C-13.7071 13.796 -12.8911 14.036 -12.0031 14.276C-11.0911 14.492 -10.1911 14.768 -9.30306 15.104C-8.41506 15.416 -7.61106 15.812 -6.89106 16.292C-6.14706 16.772 -5.54706 17.456 -5.09106 18.344C-4.63506 19.208 -4.40706 20.252 -4.40706 21.476C-4.40706 23.612 -5.28306 25.448 -7.03506 26.984C-8.76306 28.496 -11.0551 29.252 -13.9111 29.252C-16.7431 29.252 -19.0351 28.568 -20.7871 27.2C-22.5151 25.832 -23.3791 23.888 -23.3791 21.368H-16.8271C-16.6591 23.384 -15.6271 24.392 -13.7311 24.392C-12.8431 24.392 -12.1471 24.164 -11.6431 23.708C-11.1391 23.228 -10.8871 22.628 -10.8871 21.908C-10.8871 21.188 -11.1151 20.6 -11.5711 20.144C-12.0271 19.688 -12.6271 19.328 -13.3711 19.064C-14.0911 18.8 -14.9071 18.56 -15.8191 18.344C-16.7071 18.104 -17.5951 17.816 -18.4831 17.48C-19.3711 17.144 -20.1871 16.748 -20.9311 16.292C-21.6511 15.812 -22.2391 15.14 -22.6951 14.276C-23.1511 13.388 -23.3791 12.344 -23.3791 11.144C-23.3791 8.792 -22.5031 6.908 -20.7511 5.492C-18.9991 4.076 -16.7671 3.368 -14.0551 3.368C-11.3191 3.368 -9.11106 3.992 -7.43106 5.24C-5.75106 6.464 -4.87506 8.408 -4.80306 11.072H-11.4991C-11.5951 10.16 -11.8951 9.464 -12.3991 8.984C-12.8791 8.48 -13.5031 8.228 -14.2711 8.228Z" fill="#1E1F27"/>
<g id="Icon">
<path id="Shape" d="M10.3191 5.99185C13.5828 5.17573 15.7257 6.19685 17.0304 7.50161C17.1726 7.64373 17.304 7.78836 17.4253 7.93321C17.5678 8.10333 17.7783 8.20161 18.0003 8.20161C18.2222 8.20161 18.4327 8.10333 18.5752 7.9332C18.6965 7.78835 18.8279 7.64372 18.97 7.50161C20.2749 6.19681 22.4179 5.17575 25.6822 5.99184C28.9428 6.80698 31.4035 9.25861 32.2248 12.3387C33.0515 15.4395 32.1967 19.0833 29.0302 22.2498C25.5267 25.7533 22.5361 28.7454 20.654 30.6287C19.1897 32.094 16.8186 32.0946 15.3536 30.6298L6.97225 22.2498C3.80448 19.0826 2.94965 15.4387 3.77671 12.338C4.59825 9.2581 7.05941 6.80698 10.3191 5.99185Z" fill="#FF3D9A"/>
</g>
</g>
</g>
</g>
</g>
</g>
<defs>
<clipPath id="clip0_0_1">
<rect width="1512" height="6134" fill="white" transform="translate(-288 -5766)"/>
</clipPath>
</defs>
</svg>
